<?xml version="1.0" standalone="no"?>
<!DOCTYPE svg PUBLIC "-//W3C//DTD SVG 20010904//EN"
 "http://www.w3.org/TR/2001/REC-SVG-20010904/DTD/svg10.dtd">
<svg version="1.0" xmlns="http://www.w3.org/2000/svg"
 width="50.000000pt" height="40.000000pt" viewBox="0 0 600.000000 380.000000"
 preserveAspectRatio="xMidYMid meet">

<g transform="translate(0.000000,380.000000) scale(0.100000,-0.100000)"
fill="#ffffff" stroke="none">
<path d="M1098 3510 l-357 -5 -35 -34 c-39 -38 -52 -81 -41 -138 5 -31 34 -65
165 -198 l159 -160 -61 -50 c-134 -108 -251 -280 -283 -416 -51 -217 25 -429
224 -630 125 -126 270 -207 524 -294 99 -35 143 -55 157 -73 56 -70 -12 -264
-177 -505 -76 -110 -78 -113 -78 -174 0 -59 2 -65 35 -96 56 -54 681 -499 716
-510 65 -20 148 18 172 80 6 16 25 84 41 153 41 172 92 335 143 461 44 105
111 233 127 244 5 3 28 -11 52 -31 57 -47 141 -89 231 -114 97 -27 133 -26
163 5 34 33 32 77 -4 134 -46 72 -81 155 -87 208 l-6 48 99 33 c110 37 261
106 338 155 106 67 284 204 361 279 l81 78 74 -72 c126 -123 268 -189 410
-192 65 -1 70 1 101 32 l33 32 3 133 3 134 62 -59 c76 -73 176 -124 274 -139
64 -10 75 -10 109 7 56 28 64 50 64 197 0 76 4 126 9 122 5 -3 33 -10 62 -15
110 -21 230 21 312 109 74 79 92 127 92 241 0 82 -4 103 -26 150 -69 147 -236
232 -386 197 l-62 -14 -3 134 -3 135 -34 30 c-33 29 -36 30 -112 26 -101 -6
-202 -54 -293 -139 l-63 -59 -7 38 c-3 20 -6 78 -6 128 0 76 -3 96 -20 117
-31 40 -78 50 -160 38 -130 -21 -248 -80 -354 -181 l-52 -49 -84 82 c-168 163
-373 271 -648 343 -194 50 -271 54 -960 52 -350 -1 -798 -5 -994 -8z m1652
-280 c344 -36 633 -166 793 -358 41 -49 45 -58 30 -64 -18 -7 -715 -99 -719
-95 -1 1 21 51 49 111 51 112 53 136 14 144 -16 3 -1335 -391 -1369 -409 -26
-14 -23 -57 5 -69 12 -5 180 -27 372 -50 193 -23 355 -43 362 -45 8 -3 -7 -44
-44 -121 -61 -127 -62 -143 -7 -155 16 -4 112 -7 214 -8 102 0 378 -4 613 -8
l428 -6 -38 -39 c-51 -54 -211 -159 -305 -202 -204 -93 -396 -136 -639 -143
-343 -11 -647 55 -954 207 -278 137 -428 257 -497 397 -29 59 -33 77 -32 143
0 102 39 177 143 281 311 312 1059 543 1581 489z m1395 -1288 c-11 -11 -122
68 -176 126 -69 74 -141 214 -160 310 -25 130 7 291 83 420 43 73 150 182 208
210 l45 22 3 -542 c1 -297 0 -543 -3 -546z m522 284 l-2 -149 -44 34 c-25 19
-64 62 -87 96 -142 207 -121 448 55 623 l65 65 8 -260 c4 -143 7 -327 5 -409z
m449 378 c33 -16 74 -81 74 -117 0 -68 -65 -127 -138 -127 -36 0 -50 6 -77 33
-45 45 -54 96 -27 152 32 67 100 91 168 59z m-3072 -1264 c59 -16 116 -36 126
-45 37 -34 33 -58 -56 -328 -48 -144 -93 -274 -100 -288 -16 -32 -64 -53 -96
-44 -35 11 -266 173 -278 195 -5 10 -10 29 -10 41 0 12 52 123 116 246 112
215 138 251 179 253 6 0 59 -13 119 -30z"/>
</g>
</svg>
